<svg width="118" height="24" viewBox="0 0 24 24" fill="none" xmlns="http://www.w3.org/2000/svg">
<path fill-rule="evenodd" clip-rule="evenodd" d="M12.4176 0.789746C12.1422 0.733089 11.858 0.733089 11.5826 0.789746C11.2641 0.855238 10.9795 1.01465 10.7532 1.14139L10.6916 1.17584L3.02276 5.43629C3.00156 5.44807 2.97971 5.46011 2.95733 5.47244C2.7178 5.60437 2.41663 5.77025 2.18535 6.02123C1.98539 6.23821 1.83406 6.49539 1.74149 6.77556C1.63442 7.09962 1.63568 7.44346 1.63667 7.71691C1.63677 7.74247 1.63686 7.76741 1.63686 7.79166V16.2036C1.63686 16.2279 1.63677 16.2528 1.63667 16.2784C1.63568 16.5518 1.63442 16.8957 1.74149 17.2197C1.83406 17.4999 1.98539 17.7571 2.18535 17.9741C2.41663 18.225 2.7178 18.3909 2.95733 18.5229C2.97972 18.5352 3.00156 18.5472 3.02276 18.559L10.6916 22.8194L10.7533 22.8539C10.9795 22.9806 11.2641 23.1401 11.5826 23.2055C11.858 23.2622 12.1422 23.2622 12.4176 23.2055C12.7361 23.14 13.0207 22.9806 13.247 22.8539L13.3086 22.8194L20.9775 18.559C20.9868 18.5538 20.9963 18.5485 21.0059 18.5432C21.0181 18.5365 21.0304 18.5297 21.0429 18.5229C21.2824 18.3909 21.5836 18.225 21.8149 17.9741C22.0148 17.7571 22.1662 17.4999 22.2587 17.2197C22.3658 16.8957 22.3645 16.5518 22.3635 16.2784C22.3635 16.2528 22.3634 16.2279 22.3634 16.2036V7.79166C22.3634 7.76741 22.3635 7.74247 22.3635 7.71692C22.3645 7.44346 22.3658 7.09962 22.2587 6.77556C22.1662 6.49539 22.0148 6.23821 21.8149 6.02122C21.5836 5.77025 21.2824 5.60436 21.0429 5.47243L21.042 5.47197C21.02 5.4598 20.9984 5.44792 20.9775 5.43629L13.3087 1.17584L13.247 1.14139C13.0207 1.01465 12.7361 0.855237 12.4176 0.789746ZM11.6981 2.98767C11.8552 2.90042 11.9354 2.85633 11.9952 2.82749L12.0001 2.82512L12.0051 2.82749C12.0649 2.85633 12.145 2.90042 12.3021 2.98767L19.1931 6.81599L12.0001 10.8121L4.80712 6.81601L11.6981 2.98767ZM3.70951 8.57726L10.9638 12.6074L10.9638 20.5996L4.02933 16.7472C3.86357 16.6551 3.77894 16.6076 3.71956 16.5697L3.71455 16.5665L3.71417 16.5606C3.70994 16.4903 3.70951 16.3933 3.70951 16.2036V8.57726Z" fill="#ffffff"/>
</svg>
